<?xml version="1.0" standalone="yes"?>
<!DOCTYPE svg PUBLIC "-//W3C//DTD SVG 20010904//EN" "http://www.w3.org/TR/2001/REC-SVG-20010904/DTD/svg10.dtd">
<svg viewBox="-31.2156 -33 811.606 858" xmlns="http://www.w3.org/2000/svg">
<g><defs>  <marker id="markerArrow" markerWidth="13" markerHeight="13" refX="20" refY="6" orient="auto"> <path d="M2,2 L2,11 L10,6 L2,2" style="fill: #000000;" /> </marker> </defs>
<defs>  <marker id="markerArrow2" markerWidth="13" markerUnits="userSpaceOnUse" markerHeight="13" refX="20" refY="6" orient="auto"> <path d="M2,2 L2,11 L10,6 L2,2" style="fill: #000002;" /> </marker> </defs>
<rect x="-35" y="-35" height="900" width="900" style="stroke:white; fill: white"/>
<line stroke-width="2" marker-end="url(#markerArrow)" stroke="black" x1="506.26" y1="247.126" x2="382.594" y2="406.516"/>
<line stroke-width="2" marker-end="url(#markerArrow)" stroke="black" x1="450.753" y1="466.202" x2="573.018" y2="313.832"/>
<line stroke-width="2" marker-end="url(#markerArrow)" stroke="black" x1="409.296" y1="215.528" x2="506.26" y2="247.126"/>
<line stroke-width="2" marker-end="url(#markerArrow)" stroke="forestgreen" x1="573.018" y1="313.832" x2="506.26" y2="247.126"/>
<line stroke-width="2" marker-end="url(#markerArrow)" stroke="forestgreen" x1="624.313" y1="379.128" x2="573.018" y2="313.832"/>
<line stroke-width="2" marker-end="url(#markerArrow)" stroke="black" x1="219.028" y1="238.697" x2="182.489" y2="408.616"/>
<line stroke-width="3" stroke="black" x1="219.028" y1="238.697" x2="261.894" y2="202.889"/>
<line stroke-width="3" stroke="black" x1="219.028" y1="238.697" x2="75.6874" y2="394.577"/>
<line stroke-width="2" marker-end="url(#markerArrow)" stroke="black" x1="182.489" y1="408.616" x2="345.51" y2="355.959"/>
<line stroke-width="2" marker-end="url(#markerArrow)" stroke="black" x1="168.44" y1="473.222" x2="182.489" y2="408.616"/>
<line stroke-width="2" marker-end="url(#markerArrow)" stroke="black" x1="168.44" y1="473.222" x2="376.267" y2="660"/>
<line stroke-width="3" stroke="black" x1="168.44" y1="473.222" x2="75.6874" y2="394.577"/>
<line stroke-width="2" marker-end="url(#markerArrow)" stroke="black" x1="376.267" y1="660" x2="453.563" y2="560.996"/>
<line stroke-width="2" marker-end="url(#markerArrow)" stroke="black" x1="453.563" y1="560.996" x2="499.939" y2="521.669"/>
<line stroke-width="3" stroke="black" x1="453.563" y1="560.996" x2="382.594" y2="406.516"/>
<line stroke-width="3" stroke="black" x1="499.939" y1="521.669" x2="450.753" y2="466.202"/>
<line stroke-width="2" marker-end="url(#markerArrow)" stroke="black" x1="499.939" y1="521.669" x2="624.313" y2="379.128"/>
<line stroke-width="3" stroke="black" x1="624.313" y1="379.128" x2="570.208" y2="147.423"/>
<line stroke-width="3" stroke="black" x1="450.753" y1="466.202" x2="382.594" y2="406.516"/>
<line stroke-width="3" stroke="black" x1="450.753" y1="466.202" x2="499.939" y2="521.669"/>
<line stroke-width="3" stroke="black" x1="382.594" y1="406.516" x2="345.51" y2="355.959"/>
<line stroke-width="3" stroke="black" x1="382.594" y1="406.516" x2="450.753" y2="466.202"/>
<line stroke-width="3" stroke="black" x1="382.594" y1="406.516" x2="453.563" y2="560.996"/>
<line stroke-width="2" marker-end="url(#markerArrow)" stroke="black" x1="345.51" y1="355.959" x2="409.296" y2="215.528"/>
<line stroke-width="3" stroke="black" x1="345.51" y1="355.959" x2="382.594" y2="406.516"/>
<line stroke-width="2" marker-end="url(#markerArrow)" stroke="black" x1="345.51" y1="355.959" x2="219.028" y2="238.697"/>
<line stroke-width="3" stroke="black" x1="409.296" y1="215.528" x2="261.894" y2="202.889"/>
<line stroke-width="3" stroke="black" x1="409.296" y1="215.528" x2="478.857" y2="70.1879"/>
<line stroke-width="2" marker-end="url(#markerArrow)" stroke="black" x1="506.26" y1="247.126" x2="570.208" y2="147.423"/>
<line stroke-width="3" stroke="black" x1="570.208" y1="147.423" x2="530.152" y2="40"/>
<line stroke-width="3" stroke="black" x1="570.208" y1="147.423" x2="624.313" y2="379.128"/>
<line stroke-width="3" stroke="black" x1="530.152" y1="40" x2="478.857" y2="70.1879"/>
<line stroke-width="3" stroke="black" x1="530.152" y1="40" x2="570.208" y2="147.423"/>
<line stroke-width="3" stroke="black" x1="478.857" y1="70.1879" x2="530.152" y2="40"/>
<line stroke-width="3" stroke="black" x1="478.857" y1="70.1879" x2="261.894" y2="202.889"/>
<line stroke-width="3" stroke="black" x1="478.857" y1="70.1879" x2="409.296" y2="215.528"/>
<line stroke-width="3" stroke="black" x1="261.894" y1="202.889" x2="219.028" y2="238.697"/>
<line stroke-width="3" stroke="black" x1="261.894" y1="202.889" x2="409.296" y2="215.528"/>
<line stroke-width="3" stroke="black" x1="261.894" y1="202.889" x2="478.857" y2="70.1879"/>
<line stroke-width="3" stroke="black" x1="75.6874" y1="394.577" x2="219.028" y2="238.697"/>
<line stroke-width="3" stroke="black" x1="75.6874" y1="394.577" x2="168.44" y2="473.222"/>
<circle fill="black" stroke="black" stroke-width="2" cx="219.028" cy="238.697" r="4"/>
<text fill="blue" font-size="20" x="231.028" y="248.697">a</text>
<circle fill="black" stroke="black" stroke-width="2" cx="75.6874" cy="394.577" r="4"/>
<text fill="blue" font-size="20" x="87.6874" y="404.577">r</text>
<circle fill="black" stroke="black" stroke-width="2" cx="168.44" cy="473.222" r="4"/>
<text fill="blue" font-size="20" x="180.44" y="483.222">c</text>
<circle fill="black" stroke="black" stroke-width="2" cx="182.489" cy="408.616" r="4"/>
<text fill="blue" font-size="20" x="194.489" y="418.616">b</text>
<circle fill="black" stroke="black" stroke-width="2" cx="376.267" cy="660" r="4"/>
<text fill="blue" font-size="20" x="388.267" y="670">d</text>
<circle fill="black" stroke="black" stroke-width="2" cx="453.563" cy="560.996" r="4"/>
<text fill="blue" font-size="20" x="465.563" y="570.996">e</text>
<circle fill="black" stroke="black" stroke-width="2" cx="499.939" cy="521.669" r="4"/>
<text fill="blue" font-size="20" x="511.939" y="531.669">f</text>
<circle fill="black" stroke="black" stroke-width="2" cx="382.594" cy="406.516" r="4"/>
<text fill="blue" font-size="20" x="394.594" y="416.516">j</text>
<circle fill="black" stroke="black" stroke-width="2" cx="450.753" cy="466.202" r="4"/>
<text fill="blue" font-size="20" x="462.753" y="476.202">i</text>
<circle fill="black" stroke="black" stroke-width="2" cx="624.313" cy="379.128" r="4"/>
<text fill="blue" font-size="20" x="636.313" y="389.128">g</text>
<circle fill="black" stroke="black" stroke-width="2" cx="573.018" cy="313.832" r="4"/>
<text fill="blue" font-size="20" x="585.018" y="323.832">h</text>
<circle fill="black" stroke="black" stroke-width="2" cx="506.26" cy="247.126" r="4"/>
<text fill="blue" font-size="20" x="518.26" y="257.126">m</text>
<circle fill="black" stroke="black" stroke-width="2" cx="570.208" cy="147.423" r="4"/>
<text fill="blue" font-size="20" x="582.208" y="157.423">n</text>
<circle fill="black" stroke="black" stroke-width="2" cx="530.152" cy="40" r="4"/>
<text fill="blue" font-size="20" x="542.152" y="50">o</text>
<circle fill="black" stroke="black" stroke-width="2" cx="478.857" cy="70.1879" r="4"/>
<text fill="blue" font-size="20" x="490.857" y="80.1879">p</text>
<circle fill="black" stroke="black" stroke-width="2" cx="409.296" cy="215.528" r="4"/>
<text fill="blue" font-size="20" x="421.296" y="225.528">l</text>
<circle fill="black" stroke="black" stroke-width="2" cx="261.894" cy="202.889" r="4"/>
<text fill="blue" font-size="20" x="273.894" y="212.889">q</text>
<circle fill="black" stroke="black" stroke-width="2" cx="345.51" cy="355.959" r="4"/>
<text fill="blue" font-size="20" x="357.51" y="365.959">k</text>
<line stroke-width="3" stroke="brown" x1="10" y1="10" x2="50" y2="10"/>
<text fill="brown" font-size="20" x="60" y="15">2way to 1way</text>
<line stroke-width="3" stroke="forestgreen" x1="10" y1="30" x2="50" y2="30"/>
<text fill="forestgreen" font-size="20" x="60" y="35">changed direction</text>
<line stroke-width="3" stroke="gold" x1="10" y1="50" x2="50" y2="50"/>
<text fill="gold" font-size="20" x="60" y="55">1way to 2way</text>
</g></svg>